<svg xmlns="http://www.w3.org/2000/svg" width="1024" height="1024"><path fill="#transparent" d="M0 0h1024v1024H0z"/><path fill="#00458d" d="M373 355c2.93 1.586 5.496 3.59 8.125 5.625q2.393 1.791 4.79 3.578l2.512 1.889c4.294 3.184 8.683 6.231 13.073 9.283 2.365 1.65 4.73 3.3 7.09 4.96a220 220 0 0 0 5.226 3.494l2.778 1.835 2.552 1.647L421 389v4l-2.066 1.123c-13.171 7.182-26.22 14.51-38.997 22.377l-3.18 1.955c-5.749 3.57-11.328 7.287-16.794 11.277C358 431 358 431 356 431v2l2.12.782c3.17 1.34 6.012 2.955 8.974 4.71l1.756 1.036q1.86 1.099 3.72 2.202c3.276 1.944 6.56 3.876 9.844 5.81l1.983 1.168c5.47 3.22 10.963 6.398 16.478 9.542l2.499 1.425a3369 3369 0 0 0 13.501 7.634c17.644 9.933 17.644 9.933 26.277 15.168a1281 1281 0 0 0 43.644 25.293c2.643 1.475 5.268 2.979 7.895 4.48l5.997 3.375 2.865 1.655 2.709 1.51 2.405 1.365c3.674 1.33 6.136.405 9.583-1.208l2.32-1.326 2.674-1.517 2.881-1.667 3.043-1.74c11.275-6.475 22.447-13.126 33.616-19.782a4791 4791 0 0 1 39.748-23.395 10164 10164 0 0 0 26.302-15.382Q639.17 448.078 649.5 442a14954 14954 0 0 1 22.563-13.25l1.887-1.107c6.57-3.852 13.144-7.7 19.726-11.534l3.152-1.836q3.008-1.75 6.02-3.493c4.291-2.49 8.55-5.004 12.726-7.682l2.073-1.313a440 440 0 0 0 5.232-3.406c4.118-1.82 5.792-1.67 10.121-.379 3.747 1.932 7.272 4.153 10.813 6.438l2.888 1.814c6.948 4.397 6.948 4.397 9.299 6.748.26 1.946.26 1.946.274 4.38l.03 2.808.004 3.104.026 3.282c.027 3.653.04 7.306.052 10.96q.024 3.915.05 7.829c.048 7.85.078 15.699.103 23.548l.024 6.65a22192 22192 0 0 1 .137 50.853l.005 2.401c.025 12.838.091 25.676.175 38.513q.127 19.767.142 39.532c.007 7.4.03 14.8.096 22.199.062 6.961.073 13.921.05 20.883q0 3.835.051 7.669c.045 3.489.029 6.973-.003 10.462l.084 3.07c-.099 4.391-.28 6.854-3.494 10.013-2.535 1.796-5.083 3.353-7.806 4.844l-3.238 2.055-3.074 1.82-1.836 1.09A2036 2036 0 0 1 731 695l-3.045 1.79c-8.646 5.08-17.3 10.146-25.955 15.21q-7.313 4.28-14.625 8.563c-.6.35-1.198.701-1.815 1.063a4815 4815 0 0 0-26.247 15.499 2366 2366 0 0 1-29.404 17.16A3028 3028 0 0 0 605.5 768.5a3300 3300 0 0 1-27.625 16.063q-12.538 7.207-24.967 14.602c-3.9 2.318-7.804 4.627-11.709 6.938a2175 2175 0 0 0-6.328 3.767 1409 1409 0 0 1-8.683 5.13c-.848.51-1.695 1.021-2.568 1.548l-2.39 1.39-2.05 1.214c-4.086 1.59-7.146 1.302-11.13-.446l-3.093-1.82-1.7-.984a632 632 0 0 1-5.445-3.215q-1.906-1.115-3.816-2.226-3.79-2.21-7.568-4.44A1647 1647 0 0 0 473.5 798.5l-2.207-1.281a2858 2858 0 0 0-19.166-10.997 3228 3228 0 0 1-31.188-18.003 4255 4255 0 0 0-25.211-14.603 3618 3618 0 0 1-22.228-12.928 1012 1012 0 0 0-23.149-13.156 530 530 0 0 1-14.226-8.157c-6.977-4.138-14.004-8.187-21.05-12.208l-5.462-3.122a1641 1641 0 0 0-16.8-9.494l-2.865-1.604a619 619 0 0 0-5.2-2.878c-13.7-7.69-13.7-7.69-15.48-13.43-.282-2.837-.306-5.575-.243-8.425l-.025-3.26c-.018-3.6.02-7.196.06-10.796q-.001-3.873-.013-7.747c-.013-6.283.017-12.565.061-18.847.05-7.318.055-14.636.059-21.954.008-13.059.053-26.116.12-39.174q.098-19.002.123-38.002l.003-2.365.011-9.41c.015-12.078.046-24.155.081-36.233l.029-10.94c.02-8.318.048-16.635.093-24.952q.02-3.781.027-7.563c.008-3.438.028-6.875.052-10.312l-.001-3.034c.107-11.085.107-11.085 3.975-15.574 8.028-6.357 16.952-10.97 25.96-15.779 3.074-1.657 6.09-3.393 9.11-5.147 10.299-5.921 20.794-11.488 31.25-17.125q6.658-3.591 13.313-7.187l3.108-1.675 2.88-1.556 2.536-1.368C368.67 354.38 368.67 354.38 373 355"/><path fill="#00458d" d="M521 193c2.64 1.237 2.64 1.237 5.324 2.816l3.075 1.792 3.288 1.954 3.459 2.025c3.626 2.125 7.24 4.267 10.854 6.413l3.484 2.067q6.807 4.039 13.61 8.085c8.08 4.798 16.227 9.461 24.421 14.06 7.815 4.391 15.562 8.892 23.299 13.42q11.01 6.44 22.061 12.805l3.268 1.885L647 266c15.814 9.108 31.622 18.224 47.362 27.459a1044 1044 0 0 0 7.4 4.275l4.113 2.391 1.839 1.037c3.175 1.865 5.047 3.309 6.286 6.838-6.405 4.752-13.073 8.878-19.962 12.871-7.025 4.085-13.927 8.358-20.819 12.663a810 810 0 0 1-4.97 3.074 149 149 0 0 0-4.209 2.698c-2.805 1.793-4.518 2.733-7.886 2.48-3.393-.846-5.864-2.058-8.88-3.821l-3.333-1.928-3.566-2.1q-1.872-1.088-3.746-2.173a3205 3205 0 0 1-7.775-4.522c-5.928-3.454-11.893-6.845-17.854-10.242q-3.487-1.991-6.973-3.984l-3.496-1.998-36.972-21.127-2.56-1.463-4.954-2.831q-6.732-3.848-13.467-7.692l-11.438-6.528-5.265-3.006-3.07-1.752C520 265 520 265 517.445 263.164c-2.363-1.43-2.363-1.43-4.777-.657-3.554 1.989-6.966 4.138-10.363 6.384l-2.25 1.47q-3.53 2.315-7.055 4.639l-4.487 2.943a9285 9285 0 0 0-15.663 10.307l-6.717 4.422-2.144 1.413a578 578 0 0 1-15.087 9.584c-2.034 1.199-2.034 1.199-2.902 3.331l2.043.707c3.69 1.614 6.928 3.757 10.27 5.98 7.066 4.639 14.198 9.16 21.375 13.625a3257 3257 0 0 1 24.062 15.125l2.593 1.644c6.036 3.843 11.996 7.793 17.942 11.773 2.513 1.679 5.031 3.349 7.55 5.019q4.2 2.788 8.4 5.58 2.134 1.418 4.269 2.833c7.453 4.939 14.873 9.915 22.16 15.097l1.677 1.188A314 314 0 0 1 573 389l1.727 1.258c1.669 1.28 1.669 1.28 4.273 3.742v4c-1.87 1.533-1.87 1.533-4.512 2.996l-2.957 1.676-3.218 1.765a2612 2612 0 0 0-6.602 3.72c-1.12.63-2.239 1.263-3.392 1.913-3.173 1.845-6.263 3.776-9.342 5.774l-2.834 1.83a376 376 0 0 0-5.277 3.502c-3.68 2.376-5.993 3.783-10.428 3.992-4.445-1.51-7.991-3.69-11.875-6.293q-2.537-1.65-5.075-3.297l-2.7-1.767c-4.808-3.123-9.674-6.152-14.538-9.186l-3.062-1.915A1883 1883 0 0 0 472.5 390c-17.533-10.632-34.871-21.578-52.197-32.544a4334 4334 0 0 0-7.104-4.48l-2.448-1.542-4.469-2.812c-14.1-8.888-28.025-18.048-41.897-27.286q-3.91-2.598-7.824-5.191l-5.041-3.356-2.33-1.54c-4.29-2.866-8.29-5.87-12.19-9.249.152-2.254.152-2.254 1-5 2.316-1.965 2.316-1.965 5.563-3.937l1.861-1.146A470 470 0 0 1 352 288l2.499-1.472c4.86-2.857 9.733-5.69 14.61-8.516 7.704-4.472 15.36-9.02 23.016-13.574l10.22-6.078a8989 8989 0 0 1 25.097-14.85q3.887-2.296 7.773-4.596a8057 8057 0 0 1 32.808-19.301 5532 5532 0 0 0 31.236-18.436q3.057-1.817 6.123-3.617a134 134 0 0 0 4.713-2.929c4.137-2.645 6.193-2.786 10.905-1.631"/><path fill="#transparent" d="M694 486q.198 24.843.391 49.686l.182 23.082.158 20.166a26661 26661 0 0 0 .134 16.703q.041 4.896.048 9.792c.011 5.952.075 11.884.37 17.828.098 2.075.175 4.149.244 6.225q.137 3.881.407 7.756c.237 8.44.237 8.44-3.194 12.312-4.615 3.58-9.46 6.382-14.888 8.509-6.701 2.801-12.771 6.25-18.977 10.004a2194 2194 0 0 1-6.02 3.511c-11.47 6.704-22.9 13.479-34.32 20.27-12.432 7.388-24.896 14.707-37.435 21.913a1470 1470 0 0 0-20.413 11.924c-3.767 2.235-7.581 4.366-11.43 6.46l-2.987 1.625L544 735l-.219-21.035-.034-3.281a20064 20064 0 0 1-.463-50.093l-.06-7.175c-.112-13.452-.264-26.902-.533-40.353-.084-4.454-.14-8.908-.198-13.363a522 522 0 0 0-.154-6.732 456 456 0 0 1-.155-9.042l-.116-2.542c.012-3.49.14-5.534 2.575-8.147 2.05-1.576 4.128-2.928 6.357-4.237l2.873-1.823 2.63-1.509 2.968-1.714 3.091-1.766 6.493-3.75 3.135-1.81a618 618 0 0 0 9.997-5.94c5.889-3.563 11.826-7.04 17.769-10.509 11.363-6.634 22.68-13.336 33.919-20.179l1.796-1.093q6.843-4.165 13.678-8.344c8.396-5.13 16.92-9.961 25.563-14.665 5.228-2.85 10.372-5.79 15.408-8.972C692 486 692 486 694 486m-363 1c4.024 1.556 7.507 3.422 11.188 5.688 7.02 4.276 14.123 8.402 21.25 12.5a4677 4677 0 0 1 54.489 31.846c10.315 6.12 20.67 12.169 31.038 18.2q8.114 4.723 16.223 9.453c1.01.59 2.02 1.178 3.06 1.784l2.857 1.666 2.505 1.46L476 571l2.743 1.554C481 574 481 574 482 576c.094 2.065.122 4.134.12 6.2l.003 1.949q0 3.245-.01 6.49l.001 4.641q-.001 6.313-.013 12.626-.007 6.593-.008 13.184-.005 12.49-.021 24.98-.016 14.215-.022 28.432-.016 29.25-.05 58.498c-3.995-.719-6.817-1.825-10.332-3.887l-3.13-1.822-3.35-1.979-3.502-2.044q-3.6-2.101-7.192-4.215a3751 3751 0 0 0-12.577-7.352l-5.858-3.42a4208 4208 0 0 0-22.497-13.031c-11.787-6.793-23.54-13.634-35.207-20.633l-2.92-1.743a355 355 0 0 1-6.29-3.885c-5.654-3.53-10.96-6.417-17.256-8.716-7.488-3-15.253-6.341-19.889-13.273-5.078-12.25-2.925-27.838-2.318-40.739.219-5.258.282-10.519.357-15.781.137-8.465.352-16.924.624-25.386.346-10.993.434-21.972.376-32.969l-.012-2.389q-.022-4.567-.053-9.135c-.05-7.49-.034-14.978-.01-22.468l.01-3.47z"/><path fill="#transparent" d="m480 575 2 1v157l-5-1-1-2 4 1z"/><path fill="#103781" d="M704 301c4.385.501 6.8 1.983 10 5v2h-2l-1.875-1.937c-2.16-2.097-3.213-2.647-6.125-3.063z"/><path fill="#transparent" d="m724 698 1 3c-2.354 1.43-3.48 2.087-6.25 1.625L717 702zM401 457c3 0 3 0 5.188 2l1.812 2-1 2-7-4z"/><path fill="#042b7b" d="m278 405 2 1-7 6v-3c2.5-2.187 2.5-2.187 5-4"/></svg>